<?xml version="1.0" encoding="UTF-8"?>
<svg width="392px" height="707px" viewBox="0 -80 392 787" version="1.1" xmlns="http://www.w3.org/2000/svg" xmlns:xlink="http://www.w3.org/1999/xlink">
    <!-- Generator: Sketch 63 (92445) - https://sketch.com -->
    <title>Panda</title>
    <desc>Created with Sketch.</desc>
    <defs>
        <path d="M124.578,24.286 C144.915,7.876 169.937,0.902 188.937,0.902 C188.937,1.395 187.076,4.089 184.458,7.876 C178.675,16.242 169.204,29.941 167.994,37.033 C166.233,47.349 138.999,83.637 128.753,97.29 C127.814,98.541 127.018,99.601 126.397,100.435 C119.197,110.099 96.914,132.938 79.9755,143.193 C60.1624,155.188 37.9145,164.426 29.1034,165.604 C12.6004,167.812 4.9167,160.561 0.91515,149.286 C-3.08641,138.011 6.9142,129.892 13.9152,121.774 C13.9152,121.774 13.1626,119.815 12.8844,118.876 C11.6066,114.565 8.5311,107.888 13.4142,104.628 C15.1335,103.48 18.7529,102.554 23.5789,103.556 C26.1609,104.092 28.4981,104.577 29.8529,104.628 C36.0475,104.86 45.3081,104.75 51.9151,100.435 C66.4151,90.963 77.2634,78.383 87.9971,66.52 C92.535,61.506 96.867,56.93 100.914,52.655 C110.945,42.059 115.673,31.47 124.578,24.286 Z" id="path-1"></path>
        <path d="M64.359,23.384 C44.022,6.974 19,0 0,0 C0,0.494 1.861,3.187 4.479,6.974 C10.262,15.34 19.733,29.039 20.943,36.131 C22.704,46.447 49.938,82.735 60.184,96.388 C61.123,97.639 61.919,98.699 62.54,99.533 C69.74,109.198 92.023,132.036 108.962,142.291 C128.775,154.287 151.022,163.524 159.834,164.702 C176.337,166.91 184.02,159.659 188.022,148.384 C192.023,137.109 182.023,128.99 175.022,120.872 C175.022,120.872 175.774,118.913 176.053,117.975 C177.33,113.663 180.406,106.986 175.523,103.726 C173.804,102.578 170.184,101.652 165.358,102.654 C162.776,103.19 160.439,103.675 159.084,103.726 C152.89,103.958 143.629,103.848 137.022,99.533 C122.522,90.061 111.674,77.481 100.94,65.619 C96.402,60.604 92.071,56.028 88.023,51.753 C77.992,41.157 73.264,30.569 64.359,23.384 Z" id="path-3"></path>
        <path d="M347.998764,161.489 C347.998764,162.783 347.998764,164.068 347.998764,165.345 C348.005,186.564 348.012,205.422 345.671,221.974 C343.198,239.458 338.139,254.055 327.921,265.847 C317.703,277.638 302.05,286.942 277.788,293.293 C253.498,299.651 220.764,303 176.632,303 C88.135,303 44.4759,289.511 22.6501,265.78 C11.7775,253.959 6.0878,239.345 3.1352,221.893 C0.1719,204.379 0,184.247 0,161.489 C0,72.504 77.6906,0 173.998,0 C270.305,0 347.998764,72.504 347.998764,161.489 Z" id="path-5"></path>
        <filter x="-6.7%" y="-60.0%" width="113.3%" height="220.0%" filterUnits="objectBoundingBox" id="filter-7">
            <feGaussianBlur stdDeviation="3" in="SourceGraphic"></feGaussianBlur>
        </filter>
        <path d="M111.006,218.198 C108.42,218.44 105.466,218.546 102,218.499 C98.534,218.546 95.58,218.44 92.994,218.198 L92.994,218.066 C89.705,217.766 87.007,217.318 84.638,216.727 C85.81,220.52 86.694,224.631 87.25,229.11 C87.607,231.985 88.055,235.171 88.534,238.567 L88.534,238.568 C91.362,258.65 95.229,286.1 87.25,300.22 C82.537,308.562 70.531,310 57.694,310 C29.204,310 20.52,255.778 12.65,206.646 C8.923,183.375 5.379,161.247 0,146.562 L4.72,151.154 C5.099,151.446 5.48,151.736 5.863,152.022 C4.795,150.21 3.7665,148.388 2.7767,146.562 C0.912,133.061 -0.373,117.871 3.6299,101.685 C12.402,66.216 26.257,40.448 42.343,23.714 C57.554,7.889 74.513,0.2 100.647,0.004 C126.814,0.2 146.446,7.889 161.657,23.714 C177.743,40.448 191.598,66.216 200.37,101.685 C204.373,117.871 203.088,133.061 201.223,146.562 C200.248,148.362 199.234,150.158 198.182,151.945 C198.534,151.683 198.884,151.42 199.232,151.154 L204,146.562 C198.572,161.235 194.985,183.341 191.213,206.591 C183.238,255.738 174.434,310 145.649,310 C132.684,310 120.558,308.562 115.797,300.22 C107.739,286.1 111.644,258.649 114.501,238.568 C114.984,235.171 115.437,231.985 115.797,229.11 C116.347,224.724 117.215,220.69 118.364,216.963 C116.239,217.439 113.842,217.807 111.006,218.066 L111.006,218.198 Z M100.647,0.004 C100.808,0.003 100.969,0.002 101.131,0.001 C101.325,0 101.519,0 101.712,0 C101.13,0 99.956,0 100.163,0.001 C100.325,0.002 100.486,0.003 100.647,0.004 Z" id="path-8"></path>
    </defs>
    <defs>
        <filter id="filter-glow" filterUnits="userSpaceOnUse" color-interpolation-filters="sRGB">
            <feFlood flood-opacity="0" result="BackgroundImageFix"/>
            <feColorMatrix in="SourceAlpha" type="matrix" values="0 0 0 0 0 0 0 0 0 0 0 0 0 0 0 0 0 0 127 0"/>
            <feOffset/>
            <feGaussianBlur stdDeviation="15"/>
            <feColorMatrix type="matrix" values="0 0 0 0 1 0 0 0 0 0.9 0 0 0 0 0 0 0 0 0.65 0"/>
            <feBlend mode="normal" in2="BackgroundImageFix" result="effect1_dropShadow"/>
            <feBlend mode="normal" in="SourceGraphic" in2="effect1_dropShadow" result="shape"/>
            <feColorMatrix in="SourceAlpha" type="matrix" values="0 0 0 0 0 0 0 0 0 0 0 0 0 0 0 0 0 0 127 0" result="hardAlpha"/>
            <feOffset/>
            <feGaussianBlur stdDeviation="10"/>
            <feComposite in2="hardAlpha" operator="arithmetic" k2="-1" k3="1"/>
            <feColorMatrix type="matrix" values="0 0 0 0 1 0 0 0 0 0.78 0 0 0 0 0 0 0 0 0.75 0"/>
            <feBlend mode="normal" in2="shape" result="effect2_innerShadow"/>
        </filter>
    </defs>
    <g id="page" stroke="none" stroke-width="1" fill="none" fill-rule="evenodd">
        <g id="canvas" transform="translate(-548.000000, -405.000000)">
            <path d="M486.052796,236 C557.761529,241.170663 635.260937,234.669843 700.198415,272.330631 C703.4237,274.20115 739.361898,295.612518 746.18856,310.063815 C762.249986,344.064092 802.773185,377.533509 791.454807,413.392714 C774.019719,468.631061 740.322669,517.255364 702.534,562.579916 C684.322648,584.423007 665.161006,605.499722 646.411285,626.181025 C631.185558,642.975295 603.431297,641.11035 581.162437,645.349241 C540.673497,653.056335 494.448119,655.46393 452.610216,653.937989 C439.145931,653.44691 420.645461,649.853413 411.106731,639.490191 C396.910119,624.066478 400.382191,619.777505 395,595.347494" id="path"></path>
            <g id="group" transform="translate(548.000000, 405.000000)">
                <path id="fur-arm" d="M368.516,485.1 C366.916,485.1 365.116,485 363.316,484.7 C355.016,483.6 333.116,474.5 313.616,462.7 C296.816,452.5 274.716,429.6 268.016,420.7 C267.416,419.9 263.516,414.7 262.316,413.1 C261.316,411.8 260.316,410.4 259.216,408.9 L256.716,405.5 L254.316,409 C253.416,410.4 252.416,411.7 251.316,413 C239.616,427.4 220.616,436 200.516,436 C179.416,436 159.816,426.7 148.216,411.1 C147.216,409.8 146.216,408.4 145.416,406.9 L143.116,403.1 L140.516,406.7 C139.416,408.2 138.316,409.6 137.316,411 C135.516,413.4 133.816,415.6 132.516,417.4 C132.516,417.4 130.616,419.9 130.016,420.7 C123.416,429.6 101.316,452.5 84.4158,462.7 C64.9158,474.5 43.0158,483.6 34.7158,484.7 C32.9158,484.9 31.1158,485.1 29.5158,485.1 C19.5158,485.1 13.4158,480.6 9.71577,470.4 C6.91577,462.5 12.7158,456.2 18.8158,449.6 C19.9158,448.4 21.1158,447.1 22.2158,445.8 L23.4158,444.4 L22.8158,442.7 C22.6158,442.2 22.0158,440.7 21.8158,440 C21.6158,439.4 21.4158,438.8 21.2158,438.1 C19.5158,433 19.1158,430.4 21.1158,429.1 C21.8158,428.6 23.4158,428.1 25.6158,428.1 C26.7158,428.1 27.8158,428.2 29.0158,428.5 C31.8158,429.1 34.2158,429.6 35.8158,429.6 C36.0158,429.6 36.3158,429.6 36.5158,429.6 C44.1158,429.6 52.2158,425.3 57.7158,421.8 C72.3158,412.2 83.2158,397.1 93.7158,382.4 C102.716,369.9 112.016,356.9 123.516,347.6 C141.316,333.3 170.316,327 189.716,326 C191.316,325.9 192.916,325.9 194.416,325.9 L194.516,325.9 C194.916,325.9 195.416,325.9 195.816,325.9 C196.316,325.9 196.816,325.9 197.316,325.9 C197.616,325.9 197.816,325.9 198.116,325.9 C198.716,325.9 199.316,325.9 199.916,325.9 C200.516,325.9 201.116,325.9 201.616,325.9 L203.516,325.9 C204.916,325.9 206.416,326 207.916,326 C227.416,326.9 256.616,333.2 274.416,347.6 C285.916,356.9 295.216,369.9 304.216,382.4 C314.716,397.1 325.616,412.2 340.216,421.8 C345.716,425.4 353.816,429.6 361.416,429.6 C361.616,429.6 361.916,429.6 362.116,429.6 C363.716,429.5 366.116,429 368.916,428.5 C370.116,428.3 371.216,428.1 372.316,428.1 C374.516,428.1 376.116,428.6 376.816,429.1 C378.816,430.4 378.416,433.1 376.716,438.1 C376.516,438.8 376.316,439.4 376.116,440 C375.916,440.6 375.416,442 375.116,442.7 L374.516,444.4 L375.716,445.8 C376.816,447.1 378.016,448.4 379.116,449.6 C385.216,456.2 391.016,462.5 388.216,470.4 C384.616,480.6 378.616,485.1 368.516,485.1 Z" fill="#5E5675" fill-rule="nonzero"></path>
                <path d="M201.716,329 C202.316,329 202.916,329 203.516,329 C204.916,329 206.316,329 207.816,329.1 C214.016,329.4 226.416,330.5 240.916,334.7 C253.916,338.5 264.916,343.8 272.616,350 C283.816,359 293.016,371.8 301.816,384.2 C312.516,399.1 323.516,414.5 338.616,424.4 C344.416,428.2 353.116,432.7 361.416,432.7 C361.716,432.7 362.016,432.7 362.316,432.7 C364.216,432.6 366.716,432.1 369.616,431.5 C370.616,431.3 371.516,431.2 372.416,431.2 C374.216,431.2 375.116,431.6 375.216,431.7 C375.416,432.8 374.416,435.9 373.916,437.3 C373.716,438 373.516,438.6 373.316,439.3 C373.216,439.8 372.716,441.1 372.416,441.8 L371.116,445.2 L373.416,447.9 C374.516,449.2 375.716,450.5 376.816,451.7 L376.916,451.8 C383.516,459 387.416,463.6 385.316,469.5 C382.116,478.5 377.216,482.2 368.416,482.2 C366.916,482.2 365.316,482.1 363.616,481.9 C356.716,481 335.916,473 315.016,460.3 C298.516,450.3 276.816,427.8 270.316,419.1 C269.816,418.4 269.116,417.5 268.416,416.5 L268.016,416 L268.016,415.9 L267.916,415.8 L267.716,415.6 C266.816,414.4 265.816,413 264.616,411.5 C263.616,410.2 262.616,408.8 261.516,407.3 L256.416,400.5 L251.716,407.5 C250.816,408.8 249.916,410 248.916,411.3 C237.716,425 219.616,433.2 200.416,433.2 C180.216,433.2 161.616,424.4 150.516,409.5 C149.616,408.2 148.716,406.9 147.816,405.6 L143.216,398 L138.016,405 C136.916,406.5 135.816,407.9 134.816,409.3 C133.016,411.7 131.416,413.8 130.116,415.5 L129.916,415.7 L129.616,416.1 C128.816,417.2 128.116,418.1 127.516,418.8 C121.016,427.5 99.3159,450 82.8159,460 C61.9159,472.6 41.2159,480.7 34.2159,481.6 C32.5159,481.8 30.9159,481.9 29.4159,481.9 C20.6159,481.9 15.7159,478.2 12.5159,469.2 C10.4159,463.3 14.4159,458.6 21.0159,451.4 C22.1159,450.2 23.3159,448.9 24.4159,447.6 L26.7159,444.9 L25.4159,441.5 C25.1159,440.8 24.7159,439.5 24.5159,439 C24.3159,438.4 24.1159,437.7 23.9159,437 C23.5159,435.6 22.4159,432.5 22.6159,431.4 C22.8159,431.3 23.7159,430.9 25.4159,430.9 C26.3159,430.9 27.2159,431 28.2159,431.2 C31.1159,431.8 33.6159,432.3 35.5159,432.4 C35.8159,432.4 36.1159,432.4 36.4159,432.4 C44.7159,432.4 53.4159,427.9 59.2159,424.1 C74.3159,414.2 85.3159,398.8 96.0159,383.9 C104.916,371.5 114.016,358.7 125.216,349.7 C132.916,343.5 143.816,338.2 156.716,334.4 C171.116,330.2 183.516,329.1 189.716,328.7 C191.316,328.6 192.816,328.6 194.216,328.6 L194.316,328.6 C194.716,328.6 195.116,328.6 195.616,328.6 C196.116,328.6 196.616,328.6 197.216,328.6 C197.516,328.6 197.816,328.6 198.116,328.6 C198.716,328.6 199.216,328.6 199.816,328.6 C200.616,329 201.116,329 201.716,329 Z M201.716,323 C201.116,323 200.516,323 199.916,323 C199.316,323 198.616,323 198.016,323 C197.816,323 197.516,323 197.316,323 C196.416,323 195.416,323 194.516,323 C194.416,323 194.416,323 194.316,323 C192.816,323 191.216,323.1 189.516,323.1 C170.016,324.1 140.116,330.4 121.516,345.3 C109.616,354.9 100.416,367.8 91.1159,380.7 C80.6159,395.5 70.2159,410.1 56.0159,419.4 C49.6159,423.6 42.5159,426.7 36.5159,426.7 C36.3159,426.7 36.1159,426.7 35.9159,426.7 C34.5159,426.6 32.2159,426.2 29.6159,425.6 C28.2159,425.3 26.8159,425.2 25.6159,425.2 C22.8159,425.2 20.6159,425.9 19.4159,426.7 C15.2159,429.5 16.9159,435 18.3159,439.2 C18.5159,439.8 18.7159,440.4 18.9159,441 C19.2159,441.9 19.9159,443.9 19.9159,443.9 C18.8159,445.1 17.7159,446.3 16.6159,447.6 C10.2159,454.6 3.51586,461.9 6.91586,471.4 C10.4159,481.3 16.8159,488.1 29.5159,488.1 C31.2159,488.1 33.1159,488 35.1159,487.7 C43.9159,486.5 66.2159,477.3 86.0159,465.3 C102.916,455 125.216,432.2 132.416,422.5 C133.016,421.7 133.816,420.6 134.716,419.4 C136.116,417.6 137.716,415.4 139.616,412.9 C140.616,411.5 141.716,410.1 142.816,408.6 C143.716,410.1 144.716,411.6 145.816,413 C157.516,428.7 177.616,439.1 200.516,439.1 C222.416,439.1 241.816,429.6 253.716,415 C254.816,413.6 255.816,412.2 256.816,410.8 C257.916,412.3 259.016,413.7 259.916,415 C261.116,416.6 262.216,418.1 263.216,419.4 L263.216,419.5 C264.116,420.7 264.916,421.8 265.516,422.6 C272.716,432.3 295.016,455.1 311.916,465.4 C331.716,477.4 354.016,486.6 362.816,487.8 C364.816,488.1 366.716,488.2 368.416,488.2 C381.116,488.2 387.516,481.4 391.016,471.5 C394.416,461.9 387.716,454.6 381.316,447.7 C380.216,446.5 379.016,445.2 378.016,444 C378.016,444 378.816,442 379.016,441.1 C379.216,440.5 379.416,439.9 379.616,439.3 C381.016,435.1 382.716,429.7 378.516,426.8 C377.316,426 375.216,425.3 372.316,425.3 C371.116,425.3 369.816,425.4 368.316,425.7 C365.716,426.2 363.416,426.7 362.016,426.8 C361.816,426.8 361.616,426.8 361.416,426.8 C355.316,426.8 348.316,423.6 341.916,419.5 C327.716,410.2 317.316,395.6 306.716,380.9 C297.516,368 288.216,355.1 276.316,345.5 C257.716,330.5 227.516,324.2 208.016,323.2 C206.516,323.1 205.016,323 203.616,323 C202.916,323 202.316,323 201.716,323 Z" id="shape" fill="#494457" fill-rule="nonzero"></path>
                <g id="Clipped" transform="translate(8.000000, 323.000000)">
                    <mask id="mask-2" fill="white">
                        <use xlink:href="#path-1"></use>
                    </mask>
                    <g id="path"></g>
                    <path d="M119,58.632 C101.5,102.38 25.5,171.837 -6.99991,135.305 C-39.4999,98.772 -26.9998,191.682 -26.9998,191.682 L84.5002,178.602 L220,69 C174.265,9.996 150,28.5 119,58.632 Z" id="path" fill="#3F3861" fill-rule="nonzero" opacity="0.5" mask="url(#mask-2)"></path>
                </g>
                <g id="Clipped" transform="translate(203.000000, 323.000000)">
                    <mask id="mask-4" fill="white">
                        <use xlink:href="#path-3"></use>
                    </mask>
                    <g id="path"></g>
                    <path d="M72.5,59.534 C90,103.282 163.437,170.935 195.937,134.402 C228.437,97.87 215.937,190.779 215.937,190.779 L104.437,177.7 L2.5,104.184 C-51.5,82.536 37,7 72.5,59.534 Z" id="path" fill="#3F3861" fill-rule="nonzero" opacity="0.5" mask="url(#mask-4)"></path>
                </g>
                <g opacity="0.5" transform="translate(152.000000, 316.000000)" fill="#32326A" fill-rule="nonzero" id="path">
                    <path d="M44,31 C68.301,31 88,24.06 88,15.5 C88,6.94 68.301,0 44,0 C19.699,0 0,6.94 0,15.5 C0,24.06 19.699,31 44,31 Z"></path>
                </g>
                <path d="M195.632,337 C372.63,337 370.000195,283.334 370.000195,192.489 C370.000195,101.644 290.751,28 192.998,28 C95.2446,28 16,101.644 16,192.489 C16,283.334 18.6345,337 195.632,337 Z" id="path" fill="#FFFFFF"></path>
                <g id="transfer-reye" transform="translate(0, 0) rotate(0, 285 217)">
                    <path id="fur-right-eye" d="M268.285,164.865 C236.599,174.406 227.854,184.382 224.569,197.674 C219.748,217.178 236.151,261.543 269.287,270.449 C289.952,276.004 325.979,259.526 334.231,249.103 C342.482,238.68 353.525,221.505 345.634,201.476 C337.743,181.446 299.971,155.323 268.285,164.865 Z" fill="#5E5675"></path>
                </g>
                <g id="transfer-leye" transform="translate(0, 0) rotate(0, 96 217)">
                    <path id="fur-left-eye" d="M113.715,164.865 C145.401,174.406 154.146,184.382 157.431,197.674 C162.252,217.178 145.849,261.543 112.713,270.449 C92.0478,276.004 56.0207,259.526 47.769,249.103 C39.5173,238.68 28.4745,221.505 36.3655,201.476 C44.2565,181.446 82.0284,155.323 113.715,164.865 Z" fill="#5E5675"></path>
                </g>
                <g id="transfer-nose" transform="translate(0, 0) scale(1)">
                    <path d="M193,279 C208.464,279 221,265.647 221,255.706 C221,245.765 208.464,243 193,243 C177.536,243 165,245.765 165,255.706 C165,265.647 177.536,279 193,279 Z" id="path" fill="#574F6E"></path>
                </g>
                <g id="Clipped" transform="translate(19.000000, 31.000000)">
                    <mask id="mask-6" fill="white">
                        <use xlink:href="#path-5"></use>
                    </mask>
                    <g id="path"></g>
                    <g id="group" mask="url(#mask-6)" opacity="0.3">
                        <g transform="translate(-1.000000, 212.000000)">
                            <g>
                                <path d="M179.127,94 C355.627,94 338.036,37.15 350,0 C326.5,27 321.798,69.553 204.904,75.306 C195.191,75.785 186.63,80 175.127,80 C162.675,80 154.297,75.786 143.88,75.306 C28.8538,70.007 21.5,30.5 0,0 C6.9803,40.142 2.6271,94 179.127,94 Z" id="path" fill="#3F3861" opacity="0.5"></path>
                            </g>
                            <g transform="translate(156.000000, 61.000000)">
                                <g opacity="0.5" style="mix-blend-mode: multiply;" fill="#3F3861" fill-rule="nonzero" id="path">
                                    <path d="M37,7.636 C37,10.046 28.717,12 18.5,12 C8.283,12 0,10.046 0,7.636 C0,5.226 8.283,0 18.5,0 C28.717,0 37,5.226 37,7.636 Z"></path>
                                </g>
                            </g>
                        </g>
                    </g>
                </g>
                <path d="M363.998618,196.256 C363.998618,195.01 363.998618,193.754 363.998618,192.489 C363.998618,105.364 287.859,34 192.998,34 C98.1366,34 22,105.364 22,192.489 C22,215.295 22.1792,235.169 25.0932,252.393 C27.9857,269.49 33.5047,283.492 43.8582,294.75 C64.7264,317.439 107.137,331 195.632,331 C239.647,331 272.092,327.656 296.028,321.391 C319.91,315.139 334.952,306.078 344.654,294.882 C354.357,283.685 359.273,269.716 361.701,252.554 C364.011,236.219 364.004,217.564 363.998618,196.256 Z M369.999026,196.428 C370.034,284.883 370.056,337 195.632,337 C18.6345,337 16,283.334 16,192.489 C16,101.644 95.2446,28 192.998,28 C290.751,28 369.999026,101.644 369.999026,192.489 C369.999026,193.81 369.999026,195.123 369.999026,196.428 Z" id="shape" fill="#494457"></path>
                <path id="fur-ear" d="M56.5,44 C69.7487,44 81.9323,48.6812 91.5669,56.5201 L91.6325,56.5736 C91.6158,56.5598 91.5989,56.5459 91.582,56.5321 L91.6728,56.6061 C91.6727,56.6062 91.6727,56.6063 91.6726,56.6063 L91.6731,56.6068 C91.6729,56.6069 91.6728,56.607 91.6726,56.6071 C99.3038,63.0111 87.1127,74.5021 70.3058,90.3438 C53.9899,105.723 33.3241,125.202 22.2204,148.108 C22.2201,148.109 22.2198,148.111 22.2195,148.111 C8.71538,137.515 0,120.802 0,102 C0,69.9675 25.2959,44 56.5,44 Z M294.433,56.5201 C304.068,48.6812 316.251,44 329.5,44 C360.704,44 386,69.9675 386,102 C386,120.802 377.285,137.515 363.781,148.111 L363.78,148.108 C352.676,125.202 332.01,105.723 315.694,90.3438 C298.887,74.5021 286.696,63.0111 294.327,56.6071 L294.327,56.6068 L294.327,56.6061 L294.368,56.5733 L294.418,56.5321 L294.426,56.5259 L294.433,56.5201 Z" fill="#5E5675"></path>
                <g id="transfer-ltong" transform="translate(0, 0)">
                    <path id="eye-left" d="M119,244 C137.225,244 152,229.225 152,211 C152,192.775 137.225,178 119,178 C100.775,178 86,192.775 86,211 C86,229.225 100.775,244 119,244 Z" fill="#5E5675" fill-rule="nonzero"></path>
                    <path id="left-eye-circle" d="M119,181.5 C102.708,181.5 89.5,194.708 89.5,211 C89.5,227.292 102.708,240.5 119,240.5 C135.292,240.5 148.5,227.292 148.5,211 C148.5,194.708 135.292,181.5 119,181.5 Z M85.5,211 C85.5,192.498 100.498,177.5 119,177.5 C137.502,177.5 152.5,192.498 152.5,211 C152.5,229.502 137.502,244.5 119,244.5 C100.498,244.5 85.5,229.502 85.5,211 Z" fill="#C9C9C7"></path>
                </g>
                <g id="transfer-rtong" transform="translate(0, 0)">
                    <path id="eye-right" d="M264,244 C282.225,244 297,229.225 297,211 C297,192.775 282.225,178 264,178 C245.775,178 231,192.775 231,211 C231,229.225 245.775,244 264,244 Z" fill="#5E5675" fill-rule="nonzero"></path>
                    <path id="right-eye-circle" d="M264,181.5 C247.708,181.5 234.5,194.708 234.5,211 C234.5,227.292 247.708,240.5 264,240.5 C280.292,240.5 293.5,227.292 293.5,211 C293.5,194.708 280.292,181.5 264,181.5 Z M230.5,211 C230.5,192.498 245.498,177.5 264,177.5 C282.502,177.5 297.5,192.498 297.5,211 C297.5,229.502 282.502,244.5 264,244.5 C245.498,244.5 230.5,229.502 230.5,211 Z" fill="#C9C9C7"></path>
                </g>
                <g id="transfer-mouse" transform="translate(0, 0) scale(1)">
                    <path d="M193.175,302.327 C193.27,302.327 193.365,302.326 193.461,302.326 C200.662,302.326 210.529,303.634 213.507,305.424 C216.464,307.201 221.107,308 224.881,308 L231.627,308 C233.49,308 235,307.636 235,306.267 C235,305.106 232.362,304.191 228.973,303.974 C225.723,303.766 223.13,303.514 220.159,302.301 C217.657,301.28 215.713,300.05 213.695,298.773 C212.947,298.3 212.189,297.821 211.389,297.343 C208.587,295.671 202.589,293.651 199.056,292.896 C197.752,292.617 196.983,292.452 196.397,291.78 C195.198,290.403 196.748,261.541 196.748,261.541 C196.795,260.173 195.323,259.035 193.461,259.001 C193.318,258.998 193.177,259.002 193.039,259.012 C192.956,259.006 192.872,259.002 192.786,259.001 C192.689,258.999 192.593,259 192.498,259.004 C192.404,259 192.309,258.999 192.214,259.001 C192.129,259.003 192.046,259.006 191.963,259.012 C191.824,259.002 191.682,258.998 191.539,259.001 C189.677,259.035 188.205,260.173 188.252,261.541 C188.252,261.541 189.802,290.403 188.603,291.779 C188.017,292.452 187.248,292.617 185.944,292.896 C182.411,293.651 176.413,295.67 173.611,297.343 C172.811,297.821 172.053,298.3 171.305,298.773 C169.287,300.05 167.343,301.279 164.841,302.301 C161.87,303.514 159.277,303.766 156.027,303.974 C152.638,304.191 150,305.106 150,306.267 C150,307.636 151.51,308 153.373,308 L160.119,308 C163.893,308 168.536,307.201 171.493,305.424 C174.471,303.634 184.338,302.326 191.539,302.326 C191.635,302.326 191.73,302.327 191.825,302.327 L191.825,302.338 C191.937,302.335 192.05,302.333 192.163,302.331 C192.276,302.333 192.388,302.335 192.5,302.338 C192.612,302.335 192.724,302.333 192.837,302.331 C192.95,302.333 193.063,302.335 193.175,302.338 L193.175,302.327 Z" id="path" fill="#574F6E" fill-rule="nonzero"/>
                </g>
                <path d="M197.5,700 C234.779,700 265,696.642 265,692.5 C265,688.358 234.779,685 197.5,685 C160.221,685 130,688.358 130,692.5 C130,696.642 160.221,700 197.5,700 Z" id="path" fill="#C4C4C4" fill-rule="nonzero" filter="url(#filter-7)"></path>
                <g id="transfer-rtong-light" opacity="0.5" style="mix-blend-mode: screen;" transform="translate(0, 0)" fill="#FFFFFF" fill-rule="nonzero">
                    <path d="M280.912,195 C284.501,195 287.412,197.91 287.412,201.5 C287.412,205.09 284.501,208 280.912,208 C277.322,208 274.412,205.09 274.412,201.5 C274.412,197.91 277.322,195 280.912,195 Z M269.059,201.882 C270.748,201.882 272.118,203.225576 272.118,204.882 C272.118,206.538424 270.748,207.882 269.059,207.882 C267.369,207.882 266,206.538424 266,204.882 C266,203.225576 267.369,201.882 269.059,201.882 Z" fill="#FFFFFF" fill-rule="nonzero"></path>
                </g>
                <g id="hair" transform="translate(153.074419, -16.193023)">
                    <path d="M0.920379535,64.3997656 L8.21887256,15.3961191 L17.2385191,39.898854 L40.0875609,0.799133023 L40.0875609,32.6003609 L87.4010493,17.733533 L58.2672447,34.4236167 L126.207226,64.3997656 L87.4593935,64.3997656 C110.116993,77.0859795 124.569942,89.69744 128.123468,102.210445 L61.3941284,84.2112633 C74.2371423,97.2147237 79.8527702,114.56118 83.2896074,133.21491 C74.3593005,113.943096 61.5472819,96.0131981 40.0875609,81.0825563" id="Fill-2" fill="#FFFFFF"></path>
                    <path d="M0.920379535,64.3997656 L8.21887256,15.3961191 L17.2385191,39.898854 L40.0875609,0.799133023 L40.0875609,32.6003609 L87.4010493,17.733533 L58.2672447,34.4236167 L126.207226,64.3997656 L87.4593935,64.3997656 C110.116993,77.0859795 124.569942,89.69744 128.123468,102.210445 L61.3941284,84.2112633 C74.2371423,97.2147237 79.8527702,114.56118 83.2896074,133.21491 C74.3593005,113.943096 61.5472819,96.0131981 40.0875609,81.0825563" id="Stroke-4" stroke="#494457" stroke-width="5.46976744" stroke-linecap="round" stroke-linejoin="round"></path>
                </g>
                <g id="transfer-ltong-light" opacity="0.5" style="mix-blend-mode: screen;" transform="translate(0, 0)" fill="#FFFFFF" fill-rule="nonzero">
                    <path d="M136.912,195 C140.501,195 143.412,197.91 143.412,201.5 C143.412,205.09 140.501,208 136.912,208 C133.322,208 130.412,205.09 130.412,201.5 C130.412,197.91 133.322,195 136.912,195 Z M125.059,201.882 C126.748,201.882 128.118,203.252 128.118,204.941 C128.118,206.63 126.748,208 125.059,208 C123.369,208 122,206.63 122,204.941 C122,203.252 123.369,201.882 125.059,201.882 Z" fill="#FFFFFF" style="mix-blend-mode: screen;"></path>
                </g>

                <path d="M198,559.989 C201.603,560.036 204.675,559.93 207.362,559.688 L207.362,559.555 C218.345,558.588 222.994,556.098 230.277,552.199 C232.86,550.815 235.775,549.254 239.422,547.521 C268.403,533.745 288.042,511.214 301.153,487.89 C303.091,474.359 304.427,459.135 300.266,442.913 C291.147,407.365 276.743,381.538 260.02,364.767 C244.108,348.809 223.545,341.106 196.09,341 C195.788,341 198.3,341 198,341 C197.7,341 197.399,341 197.097,341 C169.642,341.106 151.892,348.809 135.98,364.767 C119.257,381.538 104.853,407.365 95.7341,442.913 C91.5726,459.135 92.9085,474.359 94.847,487.89 C107.958,511.214 127.597,533.745 156.578,547.521 C160.225,549.254 163.14,550.815 165.723,552.199 C173.006,556.098 177.655,558.588 188.638,559.555 L188.638,559.688 C191.325,559.93 194.397,560.036 198,559.989 Z" id="path" fill="#FFFFFF" fill-rule="nonzero"></path>
                <path d="M198,559.989 C201.603,560.036 204.675,559.93 207.362,559.688 L207.362,559.555 C218.345,558.588 222.994,556.098 230.277,552.199 L230.277,552.198 C232.861,550.815 235.776,549.254 239.422,547.521 C268.403,533.745 288.042,511.214 301.153,487.89 C303.091,474.359 304.427,459.135 300.266,442.913 C291.147,407.365 276.743,381.538 260.02,364.767 C245.43,350.135 226.93,342.443 202.792,341.185 C201.958,341.142 201.116,341.106 200.269,341.078 C199.518,341.053 198.762,341.034 198,341.021 C197.7,341.016 197.399,341.012 197.097,341.008 C196.929,341.007 196.762,341.005 196.594,341.004 C196.761,341.003 196.929,341 197.097,341 C197.298,341 197.5,341 197.7,341 C197.532,341 197.316,341 197.097,341 C196.656,341 196.201,341 196.09,341 C196.058,341 196.055,341 196.09,341 C196.258,341 196.426,341.003 196.594,341.004 C196.426,341.005 196.258,341.007 196.09,341.008 C195.108,341.019 194.137,341.039 193.179,341.07 C192.725,341.084 192.274,341.101 191.826,341.12 C167.325,342.15 150.85,349.854 135.98,364.767 C119.257,381.538 104.853,407.365 95.7341,442.913 C91.5726,459.135 92.9085,474.359 94.847,487.89 C107.958,511.214 127.597,533.745 156.578,547.521 C160.225,549.254 163.139,550.815 165.723,552.198 L165.723,552.199 C173.006,556.098 177.655,558.588 188.638,559.555 L188.638,559.688 C191.325,559.93 194.397,560.036 198,559.989 Z M193.506,553.96 C194.864,554 196.331,554.01 197.923,553.99 L197.999994,553.989 L198.077,553.99 C199.669,554.01 201.136,554 202.494,553.96 L206.836,553.578 C211.926,553.13 215.317,552.352 218.188,551.326 C221.144,550.271 223.738,548.894 227.444,546.909 L227.469,546.896 C230.049,545.514 233.069,543.897 236.846,542.102 C264.033,529.179 282.705,508.113 295.371,485.923 C297.185,472.917 298.206,459.03 294.454,444.404 C285.528,409.607 271.552,384.831 255.771,369.003 C241.303,354.493 222.541,347.199 196.594,347.004 C170.894,347.198 154.827,354.363 140.229,369.003 C124.448,384.831 110.472,409.608 101.546,444.404 C97.794,459.03 98.8148,472.917 100.629,485.923 C113.295,508.113 131.967,529.179 159.154,542.102 C162.931,543.897 165.95,545.514 168.531,546.896 L168.556,546.909 C172.262,548.894 174.856,550.271 177.812,551.326 C180.683,552.352 184.074,553.13 189.164,553.578 L193.506,553.96 Z M198,341 C197.961,341 197.878,341 197.767,341 C197.845,341 197.923,341 198,341 C198.035,341 198.032,341 198,341 Z" id="shape" fill="#494457"></path>
                <path id="fur-left-leg" d="M107.778,546.947 C103.953,523.933 100.325,502.1 95,487.562 L99.7205,492.154 C108.762,499.13 119.147,504.496 129.466,509.829 C154.396,522.711 178.943,535.396 183.25,570.11 C183.607,572.985 184.055,576.171 184.534,579.568 C187.362,599.65 191.229,627.1 183.25,641.22 C178.537,649.562 166.531,651 153.694,651 C125.069,651 115.973,596.262 107.778,546.947 Z" fill="#5E5675" fill-rule="nonzero"></path>
                <path id="fur-right-leg" d="M288.086,546.898 C291.955,523.902 295.625,502.089 301,487.562 L296.232,492.154 C287.095,499.134 276.594,504.502 266.157,509.838 C240.964,522.717 216.146,535.404 211.797,570.11 C211.437,572.985 210.984,576.171 210.501,579.568 C207.644,599.649 203.739,627.1 211.797,641.22 C216.558,649.562 228.684,651 241.649,651 C270.57,651 279.786,596.226 288.086,546.898 Z" fill="#5E5675" fill-rule="nonzero"></path>
                <path d="M98.0127,497.133 C97.8248,496.448 97.6347,495.772 97.4425,495.106 C97.3971,494.949 97.3515,494.792 97.3058,494.636 C96.5716,492.125 95.8052,489.76 95,487.562 L99.7205,492.154 C100.588,492.823 101.468,493.478 102.36,494.119 C110.755,500.16 120.137,505.008 129.466,509.829 C154.396,522.711 178.943,535.396 183.25,570.11 C183.607,572.985 184.055,576.171 184.534,579.568 C187.362,599.65 191.229,627.1 183.25,641.22 C178.537,649.562 166.531,651 153.694,651 C125.069,651 115.973,596.262 107.778,546.947 C104.72,528.546 101.787,510.899 98.0127,497.133 Z M104.295,501.488 C107.453,514.492 110.024,529.961 112.631,545.654 L112.71,546.127 C116.83,570.92 121.091,596.466 127.799,615.83 C131.154,625.513 134.984,633.226 139.409,638.442 C143.736,643.544 148.379,646 153.694,646 C160.015,646 165.682,645.634 170.215,644.411 C174.715,643.196 177.451,641.319 178.897,638.761 C182.166,632.975 183.266,623.787 182.947,612.774 C182.633,601.962 181.004,590.357 179.583,580.265 L179.579,580.238 C179.103,576.861 178.65,573.642 178.288,570.726 C174.34,538.906 152.33,527.272 127.171,514.271 L126.973,514.169 C119.457,510.285 111.649,506.25 104.295,501.488 Z M293.627,494.076 C285.126,500.141 275.615,505.003 266.157,509.838 C240.964,522.717 216.146,535.404 211.797,570.11 C211.437,572.985 210.984,576.171 210.501,579.568 C207.644,599.649 203.739,627.1 211.797,641.22 C216.558,649.562 228.684,651 241.649,651 C270.57,651 279.786,596.226 288.086,546.898 C291.181,528.502 294.149,510.864 297.964,497.106 C298.147,496.445 298.333,495.792 298.52,495.149 C298.566,494.99 298.613,494.832 298.659,494.674 C299.405,492.149 300.183,489.771 301,487.562 L296.232,492.154 C295.375,492.808 294.506,493.449 293.627,494.076 Z M291.673,501.43 C284.208,506.225 276.272,510.282 268.632,514.188 L268.433,514.29 C242.99,527.296 220.743,538.938 216.759,570.732 C216.393,573.648 215.935,576.868 215.455,580.244 L215.451,580.272 C214.015,590.364 212.37,601.966 212.054,612.776 C211.731,623.786 212.842,632.964 216.14,638.742 C217.601,641.301 220.373,643.188 224.937,644.408 C229.528,645.635 235.263,646 241.649,646 C247.058,646 251.767,643.523 256.142,638.417 C260.616,633.196 264.489,625.479 267.881,615.794 C274.667,596.423 278.982,570.868 283.155,546.068 L283.235,545.593 C285.875,529.901 288.478,514.432 291.673,501.43 Z" fill="#494457"></path>
                <g id="Clipped" transform="translate(96.000000, 341.000000)">
                    <mask id="mask-9" fill="white">
                        <use xlink:href="#path-8"></use>
                    </mask>
                    <g id="shape"></g>
                    <g id="group" mask="url(#mask-9)" fill="#3F3861" fill-rule="nonzero" opacity="0.5">
                        <g transform="translate(21.000000, 163.000000)" id="path">
                            <path d="M101.825,161.979 C165,154 127.5,149 123.017,129.235 C118.533,109.47 120.5,50.5 135,32 C149.5,13.5 157.132,8.843 162,1.524 C155.272,-5.214 120.379,17.969 83,18.336 C45.371,18.706 5.264,-3.7 1,1.524 C-0.317,4.472 15.5,13 29,32 C42.5,51 43.467,109.97 39.983,129.235 C36.5,148.5 -24.0004,149 61.175,161.979 C61.175,162.008 101.825,162.721 101.825,161.979 Z"></path>
                        </g>
                    </g>
                </g>
                <g opacity="0.2" style="mix-blend-mode: screen;" transform="translate(174.000000, 247.000000)" fill="#FFFFFF" fill-rule="nonzero" id="path">
                    <path d="M37,7.636 C37,10.046 28.717,12 18.5,12 C8.283,12 0,10.046 0,7.636 C0,5.226 8.283,0 18.5,0 C28.717,0 37,5.226 37,7.636 Z"></path>
                </g>
            </g>
        </g>
    </g>
</svg>
